<svg viewBox="0 0 1080 1080" fill="none" xmlns="http://www.w3.org/2000/svg">      <defs>  <filter id="filter" x="-20%" y="-20%" width="140%" height="140%" filterUnits="objectBoundingBox" primitiveUnits="userSpaceOnUse" color-interpolation-filters="linearRGB">    <feMorphology operator="dilate" radius="20 20" in="SourceAlpha" result="morphology"/>    <feFlood flood-color="#ffffff" flood-opacity="1" result="flood"/>    <feComposite in="flood" in2="morphology" operator="in" result="composite"/>    <feMerge result="merge">          <feMergeNode in="composite" result="mergeNode"/>      <feMergeNode in="SourceGraphic" result="mergeNode1"/>      </feMerge>  </filter></defs>      <g id="notion-avatar" filter="url(#filter)">        <g id="notion-avatar-face" fill="#ffffff">      <!--?xml version="1.0" encoding="UTF-8"?-->    <title>Face/ 8</title>    <g id="Face/-8" stroke="none" stroke-width="1" fill-rule="evenodd" stroke-linecap="round" stroke-linejoin="round">        <path d="M532,379 C664.54834,379 772,486.45166 772,619 C772,751.54834 724.54834,899 592,899 C492.560218,899 373.476049,816.010833 320.189513,718.584987 C317.498129,718.859681 314.765451,719 312,719 C267.81722,719 232,683.18278 232,639 C232,599.134956 261.158843,566.080325 299.312086,560.00055 C325.599297,455.979213 419.809919,379 532,379 Z M295.858895,624.545187 L304.141105,655.454813" id="Path" stroke="#000000" stroke-width="24"/>    </g>    </g><g id="notion-avatar-nose">      <!--?xml version="1.0" encoding="UTF-8"?-->    <title>Nose/ 9</title>    <g id="Nose/-9" stroke="none" stroke-width="1" fill="none" fill-rule="evenodd" stroke-linecap="round" stroke-linejoin="round">        <path d="M631,694.380659 C663.848549,704.811956 684.630284,697.576454 693.345205,672.674154 C706.417587,635.320703 637.033407,606.392531 660.161467,579" id="Path" stroke="#000000" stroke-width="16"/>    </g>    </g><g id="notion-avatar-mouth">      <g id="Mouth/ 11"><path id="Path" fill-rule="evenodd" clip-rule="evenodd" d="M529 741C529 741 595 755 627 755C659 755 689 745.528 689 745.528C689 745.528 688 814 618 814C548 814 529 741 529 741Z" stroke="black" stroke-width="16" stroke-linecap="round" stroke-linejoin="round"/></g>    </g><g id="notion-avatar-eyes">      <!--?xml version="1.0" encoding="UTF-8"?-->    <title>Eyes/ 2</title>    <g id="Eyes/-2" stroke="none" stroke-width="1" fill="none" fill-rule="evenodd">        <path d="M570,516 C587.673112,516 602,530.326888 602,548 C602,565.673112 587.673112,580 570,580 C552.326888,580 538,565.673112 538,548 C538,530.326888 552.326888,516 570,516 Z M708,516 C725.673112,516 740,530.326888 740,548 C740,565.673112 725.673112,580 708,580 C690.326888,580 676,565.673112 676,548 C676,530.326888 690.326888,516 708,516 Z" id="Combined-Shape" fill="#000000"/>    </g>    </g><g id="notion-avatar-eyebrows">      <!--?xml version="1.0" encoding="UTF-8"?-->    <title>Eyebrows/ 2</title>    <g id="Eyebrows/-2" stroke="none" stroke-width="1" fill="none" fill-rule="evenodd" stroke-linecap="round" stroke-linejoin="round">        <path d="M570,485.718496 C590.574398,488.795594 605.574398,494.964927 615,504.226493 C600,498.618009 585,495.813767 570,495.813767 C555,495.813767 536.666667,498.618009 515,504.226493 L525,490.766132 C534.425602,484.323943 549.425602,482.641398 570,485.718496 Z M708,485.718496 C728.574398,482.641398 743.574398,484.323943 753,490.766132 L753,490.766132 L763,504.226493 C741.333333,498.618009 723,495.813767 708,495.813767 C693,495.813767 678,498.618009 663,504.226493 C672.425602,494.964927 687.425602,488.795594 708,485.718496 Z" id="Combined-Shape" stroke="#000000" stroke-width="16" fill="#000000"/>    </g>    </g><g id="notion-avatar-glasses">      <!--?xml version="1.0" encoding="UTF-8"?-->    <title>Glasses/ 2</title>    <g id="Glasses/-2" stroke="none" stroke-width="1" fill="none" fill-rule="evenodd" stroke-linecap="round" stroke-linejoin="round">        <path d="M574.189838,502.353993 C586.612079,503.247679 601.018598,506.362134 617.409394,511.697357 C622.107339,513.226543 629.521032,514.112461 639.650474,514.355109 L640.336909,514.337568 C650.115498,514.071859 657.30038,513.191789 661.891553,511.697357 C678.282349,506.362134 692.688868,503.247679 705.11111,502.353993 C722.696433,501.088862 751.030506,503.214809 790.113329,508.731836 L791.300947,508.900056 L791.300947,529.629258 C786.297933,531.828279 783.752241,534.010301 783.663873,536.175322 C781.481852,589.634841 763.639862,606 723.65829,606 C685.15235,606 666.860184,585.095985 650.56058,541.630375 C648.424017,535.932875 644.892754,533.024776 639.966791,532.906078 L639.650474,532.90229 C634.559091,532.90229 630.922389,535.811651 628.740368,541.630375 C612.440763,585.095985 594.148598,606 555.642657,606 C515.661085,606 497.819095,589.634841 495.637074,536.175322 C495.548712,534.010446 493.003357,531.828573 488.00101,529.629702 L488,530 L289,550 L293,541 L487.999,509 L488,508.900056 C527.696939,503.258104 556.426885,501.076083 574.189838,502.353993 Z M564.611618,508.971486 C532.97231,506.789465 518.789172,513.335528 512.243109,520.972603 C505.697045,528.609677 493.695928,595.161324 551.51949,598.434355 C609.343052,601.707387 614.798105,534.06473 611.525073,526.427656 C608.252042,518.790581 596.250925,511.153507 564.611618,508.971486 Z M714.580942,508.971486 C682.941634,511.153507 670.940518,518.790581 667.667486,526.427656 C664.394454,534.06473 669.849507,601.707387 727.673069,598.434355 C785.496631,595.161324 773.495514,528.609677 766.949451,520.972603 C760.403387,513.335528 746.220249,506.789465 714.580942,508.971486 Z" id="Combined-Shape" stroke="#000000" stroke-width="4" fill="#000000"/>    </g>    </g><g id="notion-avatar-hair">      <g id="Hairstyle/ 39"><path id="Path" fill-rule="evenodd" clip-rule="evenodd" d="M499 255C530.508 267.472 565.59 277.322 605.268 288.553C644.946 299.784 671.888 320.97 700 348C752 398 746.942 484.288 739 493C737.601 494.535 721.325 463.054 700 444L698.615 442.77C675.806 422.637 644.02 400.454 642 402C619.677 419.084 627.675 420.273 595 427C561 434 549.626 424.652 503 416C450.977 410.003 417.977 416.003 404 434C380.296 464.522 392.365 499.147 392.365 516.739C392.365 528.233 383.924 572.725 367.044 650.214L366 655L328.117 564.825H287.146C271.78 507.747 268.106 468.653 276.123 447.542L276.87 445.586L277.655 443.563C279.549 438.724 287.997 432.536 303 425L302.938 423.117C302.412 405.678 303.388 392.143 305.866 382.512L306 382C309.047 370.574 322.517 329.262 388.884 302.935L366.282 283.125C365.857 282.752 365.429 282.376 365 282L366.925 281.942C392.744 281.204 411.769 282.556 424 286C427.172 286.893 430.481 288.094 433.927 289.603C437.049 288.94 440.248 288.307 443.525 287.705L415.064 260.61L418.214 260.777C447.35 262.359 469.109 264.729 483.49 267.887L484 268C493.813 270.195 506.255 274.141 521.325 279.838C525.184 279.731 528.95 279.679 532.631 279.678L499 255Z" fill="black" stroke="black" stroke-width="12" stroke-linecap="round" stroke-linejoin="round"/></g>    </g><g id="notion-avatar-accessories">      <!--?xml version="1.0" encoding="UTF-8"?-->    <title>Accessories/ 0</title>    <g id="Accessories/-0" stroke="none" stroke-width="1" fill="none" fill-rule="evenodd"/>    </g><g id="notion-avatar-details">      <!--?xml version="1.0" encoding="UTF-8"?-->    <title>Details/ 0</title>    <g id="Details/-0" stroke="none" stroke-width="1" fill="none" fill-rule="evenodd"/>    </g><g id="notion-avatar-beard">      <g id="Beard/ 15"><g id="Group"><g id="Combined Shape"><path fill-rule="evenodd" clip-rule="evenodd" d="M369.784 644H359.784C359.784 644 341.471 799.286 411.784 857C482.098 914.714 569.784 925 615 925C660.216 925 690.216 905 707 887C723.784 869 756.082 808.293 743 804C740.172 803.072 729.363 801.658 713.81 800.202C710.947 812.016 705.396 824.233 697.53 835C696.321 836.654 695.156 838.263 694.023 839.826C675.301 865.663 665.637 879 621.229 879C574.135 879 564.884 878 525.238 840C514.752 829.95 507.447 819.544 502.766 809.407C500.067 811.055 497.593 812.617 495.291 814.07C475.74 826.412 468.584 830.929 441 814C406.784 793 369.784 644 369.784 644Z" fill="black"/><path d="M359.784 644V638C356.742 638 354.182 640.276 353.826 643.297L359.784 644ZM369.784 644L375.607 642.554C374.943 639.878 372.541 638 369.784 638V644ZM411.784 857L415.591 852.362H415.591L411.784 857ZM743 804L741.129 809.701L743 804ZM713.81 800.202L714.369 794.228C711.402 793.95 708.681 795.893 707.979 798.789L713.81 800.202ZM697.53 835L702.375 838.539L702.375 838.539L697.53 835ZM694.023 839.826L698.881 843.347H698.881L694.023 839.826ZM525.238 840L521.086 844.332H521.086L525.238 840ZM502.766 809.407L508.214 806.892C507.496 805.338 506.149 804.165 504.511 803.667C502.873 803.169 501.101 803.394 499.64 804.286L502.766 809.407ZM495.291 814.07L492.088 808.997L492.088 808.997L495.291 814.07ZM441 814L444.139 808.886L441 814ZM359.784 650H369.784V638H359.784V650ZM415.591 852.362C382.46 825.168 369.587 774.171 365.392 728.311C363.317 705.625 363.406 684.684 364.017 669.405C364.322 661.772 364.757 655.567 365.114 651.284C365.292 649.142 365.451 647.482 365.565 646.364C365.622 645.806 365.667 645.383 365.698 645.103C365.713 644.963 365.725 644.859 365.733 644.792C365.736 644.759 365.739 644.735 365.741 644.72C365.742 644.712 365.742 644.707 365.743 644.704C365.743 644.703 365.743 644.702 365.743 644.702C365.743 644.702 365.743 644.703 359.784 644C353.826 643.297 353.825 643.299 353.825 643.302C353.825 643.304 353.824 643.307 353.824 643.31C353.823 643.317 353.822 643.326 353.821 643.337C353.818 643.36 353.815 643.392 353.81 643.433C353.8 643.516 353.787 643.636 353.77 643.791C353.736 644.103 353.687 644.559 353.626 645.152C353.506 646.337 353.34 648.069 353.155 650.287C352.786 654.721 352.339 661.099 352.026 668.925C351.401 684.566 351.306 706.054 353.442 729.404C357.668 775.614 370.795 831.118 407.977 861.638L415.591 852.362ZM615 919C570.41 919 484.361 908.81 415.591 852.362L407.977 861.638C479.834 920.619 569.159 931 615 931V919ZM702.612 882.908C686.755 899.914 658.27 919 615 919V931C662.162 931 693.677 910.086 711.388 891.092L702.612 882.908ZM741.129 809.701C739.838 809.277 739.837 808.156 739.972 809.006C740.132 810.007 740.062 811.932 739.395 814.956C738.09 820.872 734.981 828.945 730.781 837.784C722.358 855.506 710.4 874.556 702.612 882.908L711.388 891.092C720.385 881.444 732.967 861.14 741.619 842.935C745.955 833.811 749.517 824.777 751.113 817.541C751.897 813.989 752.335 810.326 751.822 807.115C751.286 803.754 749.433 799.796 744.871 798.299L741.129 809.701ZM713.251 806.176C720.985 806.9 727.498 807.61 732.402 808.249C737.561 808.921 740.36 809.448 741.129 809.701L744.871 798.299C742.813 797.624 738.793 796.98 733.952 796.349C728.856 795.685 722.188 794.96 714.369 794.228L713.251 806.176ZM702.375 838.539C710.705 827.138 716.592 814.199 719.641 801.615L707.979 798.789C705.303 809.834 700.088 821.328 692.685 831.461L702.375 838.539ZM698.881 843.347C700.015 841.783 701.174 840.183 702.375 838.539L692.685 831.461C691.469 833.126 690.296 834.744 689.164 836.306L698.881 843.347ZM621.229 885C643.975 885 658.806 881.598 670.481 874.163C681.936 866.868 689.689 856.033 698.881 843.347L689.164 836.306C679.635 849.456 673.195 858.208 664.035 864.041C655.096 869.734 642.892 873 621.229 873V885ZM521.086 844.332C540.889 863.312 553.891 873.878 568.309 879.358C582.687 884.823 597.95 885 621.229 885V873C597.414 873 584.505 872.677 572.572 868.141C560.68 863.621 549.233 854.688 529.39 835.668L521.086 844.332ZM497.319 811.923C502.343 822.802 510.11 833.812 521.086 844.332L529.39 835.668C519.394 826.088 512.551 816.286 508.214 806.892L497.319 811.923ZM498.494 819.144C500.799 817.689 503.237 816.15 505.893 814.529L499.64 804.286C496.897 805.961 494.387 807.545 492.088 808.997L498.494 819.144ZM437.861 819.114C451.808 827.673 461.898 831.698 471.591 830.996C481.08 830.309 489.124 825.059 498.494 819.144L492.088 808.997C481.907 815.424 476.597 818.603 470.725 819.028C465.056 819.438 457.776 817.256 444.139 808.886L437.861 819.114ZM369.784 644C363.961 645.446 363.961 645.447 363.962 645.449C363.962 645.45 363.963 645.452 363.963 645.455C363.965 645.46 363.966 645.468 363.969 645.477C363.974 645.497 363.981 645.525 363.99 645.563C364.009 645.637 364.036 645.747 364.073 645.891C364.145 646.18 364.253 646.605 364.394 647.16C364.676 648.269 365.094 649.893 365.637 651.965C366.723 656.108 368.31 662.042 370.322 669.227C374.344 683.59 380.07 702.981 386.879 723.053C393.678 743.094 401.606 763.961 410.048 781.215C414.269 789.841 418.678 797.687 423.211 804.122C427.686 810.473 432.567 815.864 437.861 819.114L444.139 808.886C440.879 806.886 437.119 803.027 433.021 797.21C428.982 791.477 424.887 784.238 420.827 775.941C412.709 759.351 404.971 739.031 398.243 719.197C391.525 699.394 385.863 680.223 381.878 665.992C379.886 658.879 378.316 653.01 377.245 648.922C376.709 646.879 376.299 645.281 376.022 644.197C375.884 643.655 375.78 643.242 375.71 642.965C375.675 642.827 375.649 642.722 375.632 642.654C375.624 642.619 375.617 642.594 375.613 642.577C375.611 642.569 375.609 642.563 375.609 642.559C375.608 642.557 375.608 642.556 375.608 642.555C375.607 642.554 375.607 642.554 369.784 644Z" fill="black"/></g><path id="Path" fill-rule="evenodd" clip-rule="evenodd" d="M698.059 729.721C698.059 729.721 701.033 737.719 699.086 738.906C697.74 739.726 669 722.832 616 723C563 723.168 534.188 739.683 532.914 738.906C530.905 737.681 533 732 534.94 729.721C541.033 724.945 571.31 714.711 602.246 712.449C606.205 712.16 610 716.002 616 716.001C622 716 626.18 712.101 629.327 712.287C661.138 714.165 691.805 724.818 698.059 729.721Z" fill="black" stroke="black" stroke-width="12" stroke-linecap="round" stroke-linejoin="round"/><path id="Path_2" fill-rule="evenodd" clip-rule="evenodd" d="M591 867C591 867 604.444 870 616 870C627.556 870 639 867 639 867L648 890H583L591 867Z" fill="black" stroke="black" stroke-width="12" stroke-linecap="round" stroke-linejoin="round"/></g></g>    </g>      </g>      </svg>